<mxfile host="app.diagrams.net" agent="Mozilla/5.0 (Windows NT 10.0; Win64; x64; rv:129.0) Gecko/20100101 Firefox/129.0" version="24.7.7">
  <diagram id="tDPf8CNvzOaNMvIxZvwo" name="Seite-1">
    <mxGraphModel dx="794" dy="386" grid="1" gridSize="10" guides="1" tooltips="1" connect="1" arrows="1" fold="1" page="1" pageScale="1" pageWidth="827" pageHeight="1169" math="0" shadow="0">
      <root>
        <mxCell id="0" />
        <mxCell id="1" parent="0" />
        <mxCell id="lzmcIZGoqttrfyCk76lP-21" style="edgeStyle=none;rounded=0;orthogonalLoop=1;jettySize=auto;html=1;exitX=0.5;exitY=1;exitDx=0;exitDy=0;entryX=0.5;entryY=0;entryDx=0;entryDy=0;strokeWidth=1;fontSize=20;" parent="1" source="lzmcIZGoqttrfyCk76lP-19" target="lzmcIZGoqttrfyCk76lP-20" edge="1">
          <mxGeometry relative="1" as="geometry" />
        </mxCell>
        <mxCell id="lzmcIZGoqttrfyCk76lP-19" value="&lt;font style=&quot;font-size: 20px;&quot;&gt;Cell 1&lt;/font&gt;" style="rounded=0;whiteSpace=wrap;html=1;fillColor=#CCCCCC;fontColor=#333333;strokeColor=none;" parent="1" vertex="1">
          <mxGeometry x="80" y="37" width="120" height="53" as="geometry" />
        </mxCell>
        <mxCell id="lzmcIZGoqttrfyCk76lP-23" style="edgeStyle=none;rounded=0;orthogonalLoop=1;jettySize=auto;html=1;exitX=0.5;exitY=1;exitDx=0;exitDy=0;strokeWidth=1;fontSize=20;dashed=1;" parent="1" source="lzmcIZGoqttrfyCk76lP-20" target="lzmcIZGoqttrfyCk76lP-22" edge="1">
          <mxGeometry relative="1" as="geometry" />
        </mxCell>
        <mxCell id="lzmcIZGoqttrfyCk76lP-48" style="edgeStyle=none;rounded=0;orthogonalLoop=1;jettySize=auto;html=1;exitX=1;exitY=0;exitDx=0;exitDy=0;entryX=0;entryY=0;entryDx=0;entryDy=0;strokeColor=#333333;strokeWidth=1;fontSize=20;endArrow=none;endFill=0;" parent="1" source="lzmcIZGoqttrfyCk76lP-20" target="lzmcIZGoqttrfyCk76lP-47" edge="1">
          <mxGeometry relative="1" as="geometry" />
        </mxCell>
        <mxCell id="lzmcIZGoqttrfyCk76lP-49" style="edgeStyle=none;rounded=0;orthogonalLoop=1;jettySize=auto;html=1;exitX=1;exitY=1;exitDx=0;exitDy=0;entryX=0;entryY=0;entryDx=0;entryDy=0;strokeColor=#333333;strokeWidth=1;fontSize=20;endArrow=none;endFill=0;" parent="1" source="lzmcIZGoqttrfyCk76lP-20" target="lzmcIZGoqttrfyCk76lP-47" edge="1">
          <mxGeometry relative="1" as="geometry" />
        </mxCell>
        <mxCell id="lzmcIZGoqttrfyCk76lP-20" value="&lt;font style=&quot;font-size: 20px;&quot;&gt;Cell 2&lt;/font&gt;" style="rounded=0;whiteSpace=wrap;html=1;fillColor=#CCCCCC;fontColor=#333333;strokeColor=none;" parent="1" vertex="1">
          <mxGeometry x="80" y="99" width="120" height="53" as="geometry" />
        </mxCell>
        <mxCell id="lzmcIZGoqttrfyCk76lP-22" value="&lt;font style=&quot;font-size: 20px;&quot;&gt;Cell N&lt;/font&gt;" style="rounded=0;whiteSpace=wrap;html=1;fillColor=#CCCCCC;fontColor=#333333;strokeColor=none;" parent="1" vertex="1">
          <mxGeometry x="80" y="227" width="120" height="53" as="geometry" />
        </mxCell>
        <mxCell id="lzmcIZGoqttrfyCk76lP-25" value="&lt;font style=&quot;font-size: 17px;&quot;&gt;Module 1&lt;/font&gt;" style="rounded=0;whiteSpace=wrap;html=1;fillColor=#CCCCCC;fontColor=#333333;strokeColor=none;verticalAlign=top;" parent="1" vertex="1">
          <mxGeometry x="242" y="80" width="78" height="160" as="geometry" />
        </mxCell>
        <mxCell id="lzmcIZGoqttrfyCk76lP-12" style="edgeStyle=none;rounded=0;orthogonalLoop=1;jettySize=auto;html=1;exitX=1;exitY=1;exitDx=0;exitDy=0;strokeWidth=0.5;" parent="1" source="lzmcIZGoqttrfyCk76lP-1" edge="1">
          <mxGeometry relative="1" as="geometry">
            <mxPoint x="292" y="160" as="targetPoint" />
          </mxGeometry>
        </mxCell>
        <mxCell id="lzmcIZGoqttrfyCk76lP-18" style="edgeStyle=none;rounded=0;orthogonalLoop=1;jettySize=auto;html=1;exitX=0.5;exitY=1;exitDx=0;exitDy=0;entryX=0.5;entryY=0;entryDx=0;entryDy=0;strokeWidth=0.5;" parent="1" source="lzmcIZGoqttrfyCk76lP-1" target="lzmcIZGoqttrfyCk76lP-13" edge="1">
          <mxGeometry relative="1" as="geometry" />
        </mxCell>
        <mxCell id="lzmcIZGoqttrfyCk76lP-1" value="" style="ellipse;whiteSpace=wrap;html=1;aspect=fixed;strokeColor=none;fillColor=#4D4D4D;" parent="1" vertex="1">
          <mxGeometry x="262" y="120" width="20" height="20" as="geometry" />
        </mxCell>
        <mxCell id="lzmcIZGoqttrfyCk76lP-17" style="edgeStyle=none;rounded=0;orthogonalLoop=1;jettySize=auto;html=1;exitX=0;exitY=1;exitDx=0;exitDy=0;entryX=0.5;entryY=0;entryDx=0;entryDy=0;strokeWidth=0.5;" parent="1" source="lzmcIZGoqttrfyCk76lP-11" target="lzmcIZGoqttrfyCk76lP-13" edge="1">
          <mxGeometry relative="1" as="geometry" />
        </mxCell>
        <mxCell id="lzmcIZGoqttrfyCk76lP-11" value="" style="ellipse;whiteSpace=wrap;html=1;aspect=fixed;strokeColor=none;fillColor=#4D4D4D;" parent="1" vertex="1">
          <mxGeometry x="282" y="160" width="20" height="20" as="geometry" />
        </mxCell>
        <mxCell id="lzmcIZGoqttrfyCk76lP-13" value="" style="ellipse;whiteSpace=wrap;html=1;aspect=fixed;strokeColor=none;fillColor=#4D4D4D;" parent="1" vertex="1">
          <mxGeometry x="262" y="197" width="20" height="20" as="geometry" />
        </mxCell>
        <mxCell id="lzmcIZGoqttrfyCk76lP-28" style="edgeStyle=none;rounded=0;orthogonalLoop=1;jettySize=auto;html=1;exitX=1;exitY=0.5;exitDx=0;exitDy=0;entryX=0;entryY=0.5;entryDx=0;entryDy=0;dashed=1;strokeWidth=1;fontSize=20;endArrow=none;endFill=0;" parent="1" source="lzmcIZGoqttrfyCk76lP-25" target="lzmcIZGoqttrfyCk76lP-27" edge="1">
          <mxGeometry relative="1" as="geometry">
            <mxPoint x="392" y="160" as="sourcePoint" />
          </mxGeometry>
        </mxCell>
        <mxCell id="lzmcIZGoqttrfyCk76lP-27" value="&lt;font style=&quot;font-size: 17px;&quot;&gt;Module K&lt;/font&gt;" style="rounded=0;whiteSpace=wrap;html=1;fillColor=#CCCCCC;fontColor=#333333;strokeColor=none;verticalAlign=top;" parent="1" vertex="1">
          <mxGeometry x="370" y="80" width="80" height="160" as="geometry" />
        </mxCell>
        <mxCell id="ope7WerGfLJre7qK1jh2-1" style="rounded=0;orthogonalLoop=1;jettySize=auto;html=1;exitX=0.5;exitY=1;exitDx=0;exitDy=0;entryX=0.5;entryY=0;entryDx=0;entryDy=0;" edge="1" parent="1" source="lzmcIZGoqttrfyCk76lP-33" target="lzmcIZGoqttrfyCk76lP-25">
          <mxGeometry relative="1" as="geometry" />
        </mxCell>
        <mxCell id="ope7WerGfLJre7qK1jh2-2" style="rounded=0;orthogonalLoop=1;jettySize=auto;html=1;exitX=0.5;exitY=1;exitDx=0;exitDy=0;entryX=0.5;entryY=0;entryDx=0;entryDy=0;" edge="1" parent="1" source="lzmcIZGoqttrfyCk76lP-33" target="lzmcIZGoqttrfyCk76lP-27">
          <mxGeometry relative="1" as="geometry" />
        </mxCell>
        <mxCell id="lzmcIZGoqttrfyCk76lP-33" value="&lt;font style=&quot;font-size: 20px;&quot;&gt;Cell Input&lt;/font&gt;" style="rounded=0;whiteSpace=wrap;html=1;fillColor=#CCCCCC;fontColor=#333333;strokeColor=none;" parent="1" vertex="1">
          <mxGeometry x="242" y="40" width="208" height="30" as="geometry" />
        </mxCell>
        <mxCell id="lzmcIZGoqttrfyCk76lP-34" value="&lt;font style=&quot;font-size: 20px;&quot;&gt;Cell Output&lt;/font&gt;" style="rounded=0;whiteSpace=wrap;html=1;fillColor=#CCCCCC;fontColor=#333333;strokeColor=none;" parent="1" vertex="1">
          <mxGeometry x="242" y="250" width="208" height="30" as="geometry" />
        </mxCell>
        <mxCell id="lzmcIZGoqttrfyCk76lP-43" style="edgeStyle=none;rounded=0;orthogonalLoop=1;jettySize=auto;html=1;exitX=0.5;exitY=1;exitDx=0;exitDy=0;entryX=0.5;entryY=0;entryDx=0;entryDy=0;strokeWidth=0.5;fontSize=20;endArrow=classic;endFill=1;" parent="1" source="lzmcIZGoqttrfyCk76lP-39" target="lzmcIZGoqttrfyCk76lP-40" edge="1">
          <mxGeometry relative="1" as="geometry" />
        </mxCell>
        <mxCell id="lzmcIZGoqttrfyCk76lP-44" style="edgeStyle=none;rounded=0;orthogonalLoop=1;jettySize=auto;html=1;exitX=0.5;exitY=1;exitDx=0;exitDy=0;entryX=0.5;entryY=0;entryDx=0;entryDy=0;strokeWidth=0.5;fontSize=20;endArrow=classic;endFill=1;" parent="1" source="lzmcIZGoqttrfyCk76lP-39" target="lzmcIZGoqttrfyCk76lP-41" edge="1">
          <mxGeometry relative="1" as="geometry" />
        </mxCell>
        <mxCell id="lzmcIZGoqttrfyCk76lP-39" value="" style="ellipse;whiteSpace=wrap;html=1;aspect=fixed;strokeColor=none;fillColor=#4D4D4D;" parent="1" vertex="1">
          <mxGeometry x="405" y="135.75" width="20" height="20" as="geometry" />
        </mxCell>
        <mxCell id="lzmcIZGoqttrfyCk76lP-40" value="" style="ellipse;whiteSpace=wrap;html=1;aspect=fixed;strokeColor=none;fillColor=#4D4D4D;" parent="1" vertex="1">
          <mxGeometry x="390" y="184.25" width="20" height="20" as="geometry" />
        </mxCell>
        <mxCell id="lzmcIZGoqttrfyCk76lP-41" value="" style="ellipse;whiteSpace=wrap;html=1;aspect=fixed;strokeColor=none;fillColor=#4D4D4D;" parent="1" vertex="1">
          <mxGeometry x="420" y="184.25" width="20" height="20" as="geometry" />
        </mxCell>
        <mxCell id="lzmcIZGoqttrfyCk76lP-47" value="" style="rounded=0;whiteSpace=wrap;html=1;fontSize=20;fillColor=none;" parent="1" vertex="1">
          <mxGeometry x="242" y="40" width="208" height="240" as="geometry" />
        </mxCell>
        <mxCell id="ope7WerGfLJre7qK1jh2-4" style="rounded=0;orthogonalLoop=1;jettySize=auto;html=1;exitX=0.5;exitY=1;exitDx=0;exitDy=0;" edge="1" parent="1" source="lzmcIZGoqttrfyCk76lP-27">
          <mxGeometry relative="1" as="geometry">
            <mxPoint x="410" y="250" as="targetPoint" />
          </mxGeometry>
        </mxCell>
        <mxCell id="ope7WerGfLJre7qK1jh2-3" style="rounded=0;orthogonalLoop=1;jettySize=auto;html=1;exitX=0.5;exitY=1;exitDx=0;exitDy=0;entryX=0.188;entryY=0;entryDx=0;entryDy=0;entryPerimeter=0;" edge="1" parent="1" source="lzmcIZGoqttrfyCk76lP-25" target="lzmcIZGoqttrfyCk76lP-34">
          <mxGeometry relative="1" as="geometry">
            <mxPoint x="340" y="250" as="targetPoint" />
          </mxGeometry>
        </mxCell>
      </root>
    </mxGraphModel>
  </diagram>
</mxfile>
